<svg width="40" height="40" viewBox="0 0 40 40" fill="none" xmlns="http://www.w3.org/2000/svg">
<rect width="40" height="40" rx="20" fill="#fff"/>
<g clip-path="url(#clip0_810_11261)">
<path d="M20.0043 15.9573C17.7329 15.9573 15.9007 17.7608 15.9007 19.9968C15.9007 22.2327 17.7329 24.0362 20.0043 24.0362C22.2757 24.0362 24.1079 22.2327 24.1079 19.9968C24.1079 17.7608 22.2757 15.9573 20.0043 15.9573ZM20.0043 22.6229C18.5364 22.6229 17.3364 21.4452 17.3364 19.9968C17.3364 18.5483 18.5329 17.3706 20.0043 17.3706C21.4757 17.3706 22.6722 18.5483 22.6722 19.9968C22.6722 21.4452 21.4722 22.6229 20.0043 22.6229ZM25.2329 15.7921C25.2329 16.3159 24.8043 16.7343 24.2757 16.7343C23.7436 16.7343 23.3186 16.3124 23.3186 15.7921C23.3186 15.2718 23.7472 14.8499 24.2757 14.8499C24.8043 14.8499 25.2329 15.2718 25.2329 15.7921ZM27.9507 16.7483C27.89 15.4862 27.5972 14.3683 26.6579 13.4472C25.7222 12.5261 24.5864 12.2378 23.3043 12.1745C21.9829 12.1007 18.0222 12.1007 16.7007 12.1745C15.4222 12.2343 14.2864 12.5226 13.3472 13.4437C12.4079 14.3647 12.1186 15.4827 12.0543 16.7448C11.9793 18.0456 11.9793 21.9444 12.0543 23.2452C12.115 24.5073 12.4079 25.6253 13.3472 26.5464C14.2864 27.4675 15.4186 27.7558 16.7007 27.819C18.0222 27.8929 21.9829 27.8929 23.3043 27.819C24.5864 27.7593 25.7222 27.471 26.6579 26.5464C27.5936 25.6253 27.8864 24.5073 27.9507 23.2452C28.0257 21.9444 28.0257 18.0491 27.9507 16.7483ZM26.2436 24.6409C25.965 25.33 25.4257 25.8608 24.7222 26.1386C23.6686 26.5499 21.1686 26.455 20.0043 26.455C18.84 26.455 16.3364 26.5464 15.2864 26.1386C14.5864 25.8644 14.0472 25.3335 13.765 24.6409C13.3472 23.6038 13.4436 21.1429 13.4436 19.9968C13.4436 18.8507 13.3507 16.3862 13.765 15.3526C14.0436 14.6636 14.5829 14.1327 15.2864 13.855C16.34 13.4437 18.84 13.5386 20.0043 13.5386C21.1686 13.5386 23.6722 13.4472 24.7222 13.855C25.4222 14.1292 25.9614 14.6601 26.2436 15.3526C26.6614 16.3897 26.565 18.8507 26.565 19.9968C26.565 21.1429 26.6614 23.6073 26.2436 24.6409Z" fill="black"/>
</g>
<defs>
<clipPath id="clip0_810_11261">
<rect width="16" height="18" fill="white" transform="translate(12 11)"/>
</clipPath>
</defs>
</svg>
