<svg width="20" height="20" viewBox="0 0 20 20" fill="none" xmlns="http://www.w3.org/2000/svg">
<g clip-path="url(#clip0_1005_40720)">
<path d="M10 20C10 18.2867 11.0772 16.825 12.5912 16.2552C14.0646 15.5878 15.8597 15.8597 17.0711 17.0711C15.8597 15.8597 15.5877 14.0646 16.2552 12.5911C16.8251 11.0771 18.2867 10 20 10C18.2867 10 16.8251 8.92292 16.2552 7.40888C15.5878 5.93541 15.8597 4.14032 17.0711 2.92892C15.8597 4.14032 14.0646 4.41228 12.5911 3.74483C11.0771 3.17495 10 1.71326 10 0C10 1.71327 8.92292 3.17496 7.40887 3.74483C5.93539 4.41228 4.14032 4.14032 2.92892 2.92893C4.14032 4.14032 4.41229 5.93541 3.74483 7.40889C3.17494 8.92292 1.71326 10 0 10C1.71327 10 3.17496 11.0771 3.74483 12.5912C4.41228 14.0646 4.14032 15.8597 2.92893 17.0711C4.14033 15.8597 5.93542 15.5878 7.4089 16.2552C8.92292 16.8251 10 18.2867 10 20Z" stroke="#3D7068" stroke-width="1.5"/>
<path d="M13.3327 9.99935C13.3327 11.8403 11.8403 13.3327 9.99935 13.3327C8.1584 13.3327 6.66602 11.8403 6.66602 9.99935C6.66602 8.1584 8.1584 6.66602 9.99935 6.66602C11.8403 6.66602 13.3327 8.1584 13.3327 9.99935Z" stroke="#3D7068" stroke-width="1.5"/>
</g>
<defs>
<clipPath id="clip0_1005_40720">
<rect width="20" height="20" fill="white"/>
</clipPath>
</defs>
</svg>
