<svg width="20" height="20" viewBox="0 0 20 20" fill="none" xmlns="http://www.w3.org/2000/svg">
<g clip-path="url(#clip0_1325_10886)">
<path d="M2.98983 5.72692H3.73983C3.73983 5.39636 3.52341 5.10478 3.20702 5.00905L2.98983 5.72692ZM17.0104 5.72692L16.7932 5.00905C16.4768 5.10478 16.2604 5.39636 16.2604 5.72692H17.0104ZM16.2604 17.9113C16.2604 18.3256 16.5962 18.6613 17.0104 18.6613C17.4246 18.6613 17.7604 18.3256 17.7604 17.9113H16.2604ZM2.23983 17.9147C2.23983 18.329 2.57562 18.6647 2.98983 18.6647C3.40404 18.6647 3.73983 18.329 3.73983 17.9147H2.23983ZM1.19336 3.90531C1.19336 3.90497 1.19312 3.8998 1.19789 3.88663C1.20308 3.87229 1.21535 3.84565 1.24339 3.80722C1.30217 3.72665 1.41443 3.61604 1.60884 3.48713C2.0004 3.2275 2.61647 2.96461 3.44499 2.73225C5.09161 2.27045 7.40946 1.9751 10.0001 1.9751V0.475098C7.31272 0.475098 4.85219 0.779728 3.03994 1.28798C2.13904 1.54064 1.35555 1.85529 0.779912 2.23698C0.233284 2.59942 -0.306641 3.14805 -0.306641 3.90531H1.19336ZM10.0001 1.9751C12.5908 1.9751 14.9086 2.27045 16.5552 2.73225C17.3838 2.96461 17.9998 3.2275 18.3914 3.48713C18.5858 3.61604 18.6981 3.72665 18.7568 3.80722C18.7849 3.84565 18.7971 3.87229 18.8023 3.88663C18.8071 3.8998 18.8069 3.90497 18.8069 3.90531H20.3069C20.3069 3.14805 19.7669 2.59942 19.2203 2.23698C18.6447 1.85529 17.8612 1.54064 16.9603 1.28798C15.148 0.779728 12.6875 0.475098 10.0001 0.475098V1.9751ZM3.20702 5.00905C2.45365 4.78113 1.90157 4.5297 1.5544 4.2864C1.38252 4.16594 1.28547 4.06445 1.23553 3.99235C1.21172 3.95798 1.20146 3.93442 1.19716 3.92191C1.19319 3.91039 1.19336 3.90578 1.19336 3.90531H-0.306641C-0.306641 4.62614 0.184309 5.1579 0.693521 5.51477C1.22449 5.88689 1.94564 6.19458 2.77264 6.44478L3.20702 5.00905ZM18.8069 3.90531C18.8069 3.90578 18.807 3.91039 18.8031 3.92191C18.7988 3.93442 18.7885 3.95798 18.7647 3.99235C18.7148 4.06445 18.6177 4.16594 18.4458 4.2864C18.0987 4.5297 17.5466 4.78113 16.7932 5.00905L17.2276 6.44478C18.0546 6.19458 18.7757 5.88689 19.3067 5.51477C19.8159 5.1579 20.3069 4.62614 20.3069 3.90531H18.8069ZM16.2604 5.72692V17.9113H17.7604V5.72692H16.2604ZM2.23983 5.72692V17.9147H3.73983V5.72692H2.23983Z" fill="#3D7068"/>
<path d="M0.443359 3.93155V16.0947C0.443359 17.5749 4.72206 18.7749 10.0001 18.7749C15.2782 18.7749 19.5569 17.5749 19.5569 16.0947V3.94577" stroke="#3D7068" stroke-width="0.84375" stroke-linecap="round"/>
<path d="M19.5566 9.90088C19.5566 10.611 18.5945 11.2581 17.0159 11.7453" stroke="#3D7068" stroke-width="0.84375" stroke-linecap="round"/>
<path d="M5.65625 1.53174V3.93153" stroke="#3D7068" stroke-width="0.84375" stroke-linecap="round"/>
<path d="M14.3438 1.53174V3.93153" stroke="#3D7068" stroke-width="0.84375" stroke-linecap="round"/>
<path d="M0.443359 9.90088C0.443359 10.6122 1.40879 11.2603 2.99222 11.7478" stroke="#3D7068" stroke-width="0.84375" stroke-linecap="round"/>
<path d="M7.87109 13.9541V16.5605" stroke="#3D7068" stroke-width="1.5" stroke-linecap="round" stroke-linejoin="round"/>
<path d="M12.0137 13.9541V16.5605" stroke="#3D7068" stroke-width="1.5" stroke-linecap="round" stroke-linejoin="round"/>
<path d="M10.0919 13.9541C10.1557 13.9542 10.2184 13.9375 10.2737 13.9057C10.329 13.8739 10.375 13.8281 10.4071 13.7729C10.4391 13.7178 10.4561 13.6552 10.4564 13.5913C10.4566 13.5275 10.4401 13.4648 10.4084 13.4094L9.26311 11.0411H10.3555L8.89898 8.49218H9.99137L8.10954 5.66847C8.07629 5.6186 8.03124 5.57771 7.97839 5.54943C7.92554 5.52114 7.86653 5.50635 7.80659 5.50635C7.74665 5.50635 7.68763 5.52114 7.63478 5.54943C7.58193 5.57771 7.53688 5.6186 7.50363 5.66847L5.62181 8.4912H6.7142L5.25767 11.0401H6.35007L5.20475 13.4084C5.17289 13.4638 5.15616 13.5266 5.15625 13.5905C5.15634 13.6544 5.17325 13.7172 5.20528 13.7725C5.23731 13.8278 5.28333 13.8737 5.33872 13.9056C5.39411 13.9375 5.45691 13.9542 5.52082 13.9541H10.0919Z" stroke="#3D7068" stroke-width="1.5" stroke-linecap="round" stroke-linejoin="round"/>
<path d="M11.5081 13.9545H14.0233C14.0793 13.9545 14.1345 13.9398 14.1831 13.9119C14.2317 13.8839 14.2722 13.8437 14.3003 13.7952C14.3285 13.7467 14.3435 13.6917 14.3437 13.6356C14.3439 13.5795 14.3293 13.5243 14.3015 13.4756L13.2947 11.3937H14.255L12.9746 9.15306H13.9349L12.2807 6.67083C12.2514 6.62699 12.2118 6.59105 12.1654 6.56619C12.1189 6.54133 12.067 6.52832 12.0143 6.52832C11.9617 6.52832 11.9098 6.54133 11.8633 6.56619C11.8169 6.59105 11.7773 6.62699 11.748 6.67083L11.0567 7.77204" stroke="#3D7068" stroke-width="1.5" stroke-linecap="round" stroke-linejoin="round"/>
</g>
<defs>
<clipPath id="clip0_1325_10886">
<rect width="20" height="20" fill="white"/>
</clipPath>
</defs>
</svg>
