<svg width="25" height="24" viewBox="0 0 25 24" fill="none" xmlns="http://www.w3.org/2000/svg">
<path d="M18.5 13.5C18.5 17.1082 15.8137 22 12.5 22C9.1863 22 6.5 17.1082 6.5 13.5C6.5 9.89175 7.25 8 12.5 8C17.75 8 18.5 9.89175 18.5 13.5Z" stroke="white"/>
<path d="M18.7616 7.51273C19.738 6.53642 21.0834 6.29898 21.7668 6.9824C22.4503 7.66582 22.2128 9.01129 21.2365 9.9876C20.2602 10.9639 18.9147 11.2014 18.2313 10.5179C17.5479 9.83452 17.7853 8.48904 18.7616 7.51273Z" stroke="white"/>
<path d="M3.76164 9.98727C4.73795 10.9636 6.08343 11.201 6.76685 10.5176C7.45026 9.83418 7.21283 8.48871 6.23652 7.5124C5.26021 6.53609 3.91473 6.29865 3.23131 6.98207C2.5479 7.66548 2.78533 9.01096 3.76164 9.98727Z" stroke="white"/>
<path d="M6.5 2C6.5 5.3137 9.1863 8 12.5 8C15.8137 8 18.5 5.3137 18.5 2" stroke="white" stroke-linecap="round"/>
<path d="M9.5 3.5C9.5 5.9853 10.8432 8 12.5 8C14.1568 8 15.5 5.9853 15.5 3.5" stroke="white" stroke-linecap="round"/>
<path d="M10.5 14C11.0523 14 11.5 13.5523 11.5 13C11.5 12.4477 11.0523 12 10.5 12C9.94772 12 9.5 12.4477 9.5 13C9.5 13.5523 9.94772 14 10.5 14Z" fill="white"/>
<path d="M12.5 18C13.0523 18 13.5 17.5523 13.5 17C13.5 16.4477 13.0523 16 12.5 16C11.9477 16 11.5 16.4477 11.5 17C11.5 17.5523 11.9477 18 12.5 18Z" fill="white"/>
<path d="M14.5 14C15.0523 14 15.5 13.5523 15.5 13C15.5 12.4477 15.0523 12 14.5 12C13.9477 12 13.5 12.4477 13.5 13C13.5 13.5523 13.9477 14 14.5 14Z" fill="white"/>
</svg>
