<svg width="25" height="24" viewBox="0 0 25 24" fill="none" xmlns="http://www.w3.org/2000/svg">
<path d="M3.49935 11.5004C1.4797 7.97839 5.31142 5.93185 7.49936 5.5002C14.77 -0.922175 20.742 5.3566 21.4994 9.5C22.2568 13.6434 22.0786 16.9465 22.4994 18.5004C19.2679 14.1497 17.0608 14.9207 16.4994 16.0004C15.4895 18.0721 13.8427 18.1259 12.9994 17.5004C10.9797 15.843 7.76161 19.1011 6.49936 21.0002C8.92301 16.6496 9.25186 13.8636 8.99936 13.0004C7.98951 8.85689 4.84582 10.2918 3.49935 11.5004Z" stroke="white" stroke-linecap="round" stroke-linejoin="round"/>
<path d="M12 9C12.5523 9 13 8.55228 13 8C13 7.44772 12.5523 7 12 7C11.4477 7 11 7.44772 11 8C11 8.55228 11.4477 9 12 9Z" fill="white"/>
</svg>
