<svg width="25" height="24" viewBox="0 0 25 24" fill="none" xmlns="http://www.w3.org/2000/svg">
<g clip-path="url(#clip0_3005_811)">
<path d="M16 7.5H5.65754C3.96871 7.5 2.3621 6.77097 1.25 5.5H1V10.5H5C8.86599 10.5 12 13.634 12 17.5H24V15.5C24 11.0817 20.4183 7.5 16 7.5ZM16 7.5V10.5C16 12.7091 17.7909 14.5 20 14.5H23.9381M16 7.5V4M16 4C13.7246 4 11.4557 3.75504 9.23273 3.26934L8 3M16 4C18.2754 4 20.5443 3.75504 22.7673 3.26934L24 3M15 17.5V21.2539M21 17.5V21.2539M12 22L13.0962 21.6868C14.6909 21.2312 16.3414 21 18 21C19.6586 21 21.3091 21.2312 22.9038 21.6868L24 22" stroke="white"/>
</g>
<defs>
<clipPath id="clip0_3005_811">
<rect width="24" height="24" fill="white" transform="translate(0.5)"/>
</clipPath>
</defs>
</svg>
