<svg width="25" height="24" viewBox="0 0 25 24" fill="none" xmlns="http://www.w3.org/2000/svg">
<g clip-path="url(#clip0_3005_807)">
<path d="M14.5035 23.5C13.5035 23.5 12.7535 22 12.7535 22C12.0035 20.5 12.0035 18.5 12.0035 17V16.5L7.00344 14V13.75L8.80619 8.52203C9.22343 7.31203 10.3624 6.5 11.6423 6.5H13.0035L13.5211 9.08835C13.8016 10.4906 15.0328 11.5 16.4629 11.5H19.5035M10.0034 17.5C9.79269 17.5 9.53753 17.6332 9.26603 17.8436C7.4619 19.2412 7.00344 21.7178 7.00344 24M18.9357 13L17.0035 23.9M19.9993 7L19.4675 10M7.00344 6L5.2793 11M12.8535 4.5C12.8535 4.5 11.2535 3.5 11.2535 2.25C11.2535 1.2835 12.037 0.5 13.0035 0.5C13.97 0.5 14.7492 1.2835 14.7492 2.25C14.7492 3.5 13.1535 4.5 13.1535 4.5H12.8535Z" stroke="white" stroke-opacity="0.8" stroke-width="1.5"/>
</g>
<defs>
<clipPath id="clip0_3005_807">
<rect width="24" height="24" fill="white" transform="translate(0.5)"/>
</clipPath>
</defs>
</svg>
