<svg width="25" height="24" viewBox="0 0 25 24" fill="none" xmlns="http://www.w3.org/2000/svg">
<path d="M6.5 17.5204C6.30556 17.5071 6.13743 17.5 6 17.5C4.34315 17.5 3 18.8431 3 20.5C3 22.1569 4.34315 23.5 6 23.5C8 23.5 15.9128 20.3481 18 19.75V19.25C16.9827 19.0804 12.7455 18.3359 9.5 17.8743M18 15.5V11M18 15.5C20.2091 15.5 22 17.2909 22 19.5C22 21.7091 20.2091 23.5 18 23.5C16.3213 23.5 14.8841 22.4659 14.2908 21M18 15.5C16.1362 15.5 14.5701 16.7748 14.126 18.5M19.5 8L22.5 5M19.5 9.5H16.5311C15.3044 9.5 14.2013 8.75315 13.7457 7.61417L12.5 4.5H11.5862C10.8844 4.5 10.2048 4.74604 9.66564 5.19533L6 8.25V8.5L9 12.5V12.75C9 12.75 7.99996 15 8 19M10.5 9.5L13.5 11.5V11.75C13.5 11.75 11.5 13 11 14.75M15.3052 4.5C15.3052 4.5 17.1152 3.94296 17.4397 2.72413C17.6907 1.78174 17.1349 0.813068 16.1984 0.560553C15.2619 0.308038 14.3034 0.868427 14.0525 1.81082C13.7279 3.02965 15.0145 4.42162 15.0145 4.42162L15.3052 4.5Z" stroke="white"/>
</svg>
